<?xml version="1.0" encoding="utf-8"?>
<!-- Generator: Adobe Illustrator 21.1.0, SVG Export Plug-In . SVG Version: 6.00 Build 0)  -->
<svg version="1.1" id="Layer_1" xmlns="http://www.w3.org/2000/svg" xmlns:xlink="http://www.w3.org/1999/xlink" x="0px" y="0px"
	 viewBox="0 0 235.4 201.2" style="enable-background:new 0 0 235.4 201.2;" xml:space="preserve">
<style type="text/css">
	.st0{fill:#991B0F;}
	.st1{fill:#DA2516;}
	.st2{fill:#FDDEBC;}
	.st3{fill:#591009;}
	.st4{fill:#420906;}
	.st5{fill:#252525;}
	.st6{fill:#F3F3F3;}
	.st7{fill:none;stroke:#591009;stroke-miterlimit:10;}
	.st8{fill:#EE9782;}
	.st9{fill:#F3FAFE;}
	.st10{fill:#72AADC;}
	.st11{fill:#4066AE;}
	.st12{fill:#BDE4F6;}
	.st13{fill:#FFEDD4;}
	.st14{fill:#BF2113;}
	.st15{opacity:0.253;fill:#E76367;enable-background:new    ;}
	.st16{fill:#FFFFFF;}
</style>
<g id="XMLID_835_">
	<g id="XMLID_570_">
		<path id="XMLID_569_" class="st0" d="M44.6,55.3c3.1-6.2,7.5-15.9,13.1-13.1c5.6,2.8,9.5,12.6,6.2,23.2c-2.1,6.6-11,12.4-16.6,9.6
			C41.6,72.2,41.5,61.5,44.6,55.3z"/>
		<path id="XMLID_520_" class="st1" d="M37.2,86.4c-5.8,2.5-13.1,2.1-18.8-0.3C9.7,82.5,5,74.3,5.5,64.9c0.2-4.5,1.5-9,2.4-13.4
			c1.4-6.7,2-13.8-0.4-20.1c-1.3-3.5-3.5-6.5-5.1-9.8c-1.7-3.3-2.9-7-2.2-10.6c1-5,5.6-8.6,10.4-10c18.2-5,39,9.5,45,26.5
			c1.1,3.2,1.8,6.6,2,10c0.2,3.5-0.4,11.6-4.4,17.4c0,0,3.2,0.3,3.9,8.1c0.4,4.5,0.3,7.9,0.3,7.9C45.2,82.2,37.2,86.4,37.2,86.4z"/>
		
			<rect id="XMLID_551_" x="190.3" y="172" transform="matrix(0.7799 -0.6259 0.6259 0.7799 -68.6105 162.5738)" class="st2" width="13.1" height="13.7"/>
		<path id="XMLID_525_" class="st3" d="M200.6,171.4l-41.3-51.5c-1.9-2.4-5.2-3.3-8.1-2.2l-84.8,31.5l0,0
			c5.9,15.9,24.2,23.2,39.4,15.7l45.4-22.4l37,39L200.6,171.4z"/>
		<path id="XMLID_638_" class="st4" d="M113.9,160.9c3.3-8.7,8.8-32.5,8.8-32.5l-56.3,20.8l0,0c5.9,15.9,24.2,23.2,39.4,15.7
			L113.9,160.9z"/>
		
			<rect id="XMLID_547_" x="193" y="179.9" transform="matrix(0.7799 -0.6259 0.6259 0.7799 -70.2173 165.0255)" class="st5" width="13.1" height="4.9"/>
		<g id="XMLID_541_">
			<path id="XMLID_546_" class="st1" d="M228.1,170.2l-15.3,9.4l-3.4-2.1c-0.8-0.5-1.9-0.4-2.7,0.2l-12.8,10.4l1.2,1.4l2.7,3.3
				l5.1,6.2l31-25.2l-2.5-3.1C230.6,169.8,229.2,169.5,228.1,170.2z"/>
			<path id="XMLID_545_" class="st6" d="M205.4,200.8l29.7-24.1c0.4-0.3,0.4-0.8,0.1-1.2l-1.3-1.7l-31,25.2l1.3,1.7
				C204.5,201,205,201.1,205.4,200.8z"/>
			<line id="XMLID_543_" class="st7" x1="205.9" y1="183" x2="211.1" y2="176.1"/>
			<line id="XMLID_542_" class="st7" x1="207.8" y1="184.4" x2="213" y2="177.5"/>
		</g>
		<path id="XMLID_540_" class="st2" d="M102.8,83.4v7.1H98v-7.1c0-1.3,1.1-2.4,2.4-2.4l0,0C101.7,81,102.8,82.1,102.8,83.4z"/>
		<path id="XMLID_521_" class="st2" d="M103.8,87.9L87.2,117l-24.7-15.6c-3.5-2.2-8.2-1.5-10.6,1.8c-2.6,3.6-1.6,8.7,2.1,11.1
			l34.5,21.8c2.2,1.4,5,0.5,6-1.8l14.5-33.1C111.3,96,108.9,90.1,103.8,87.9z"/>
		<path id="XMLID_634_" class="st8" d="M92.1,108.5c0.7,0.2,1.4,0.3,2.2,0.5c6.8,1.3,13.1-4.6,13.6-9.7L99,96.4L92.1,108.5z"/>
		<path id="XMLID_528_" class="st1" d="M73.7,125c5.7-5.3,4.5-13.2,1.9-16.7c-3.8-5.2-13.1-9.5-16.9-11.4s-7-3.8-18.9,1.5
			S29,110.6,29,110.6c1.1,35.2,31.9,56.1,39.6,60.6l18.7-31.9C81.1,135.8,76.2,131.4,73.7,125z"/>
		<g id="XMLID_519_">
			<path id="XMLID_557_" class="st9" d="M97.2,109.4l-12.9,1.8c-1.7,0.2-3.2-1.1-3.2-2.8V78.9c0-1.4,1-2.6,2.4-2.8l12.9-1.8
				c1.7-0.2,3.2,1.1,3.2,2.8v29.6C99.6,108,98.6,109.2,97.2,109.4z"/>
			<g id="XMLID_560_">
				<path id="XMLID_558_" class="st10" d="M92.8,85.4l-2.4,0.3c-0.3,0-0.6-0.2-0.6-0.5v-6.5c0-0.3,0.3-0.7,0.6-0.7l2.4-0.3
					c0.3,0,0.6,0.2,0.6,0.5v6.5C93.4,85.1,93.1,85.4,92.8,85.4z"/>
				<path id="XMLID_559_" class="st11" d="M90.7,80.1c0-0.5,0.4-1,0.9-1c0.5-0.1,0.9,0.3,0.9,0.8s-0.4,1-0.9,1
					C91.1,81,90.7,80.6,90.7,80.1z"/>
				<path id="XMLID_561_" class="st11" d="M91,82.7c0-0.3,0.3-0.6,0.6-0.6s0.6,0.2,0.6,0.5s-0.3,0.6-0.6,0.6
					C91.3,83.3,91,83,91,82.7z"/>
			</g>
			<path id="XMLID_565_" class="st12" d="M82.8,107c0-1.3,0-16.1,0-22.8c0-6.6,0-8,2.4-8.5l0,0l-1.6,0.2c-1.4,0.2-2.4,1.4-2.4,2.8
				v29.6c0,1.7,1.5,3.1,3.2,2.8l1.4-0.2C82.5,111.5,82.8,108.3,82.8,107z"/>
		</g>
		<path id="XMLID_518_" class="st2" d="M52,99.7c0,7.1-14.8,2.2-14.8,0V86.4H52V99.7z"/>
		<path id="XMLID_633_" class="st8" d="M45.4,93.5c2.8,0.9,5,0.5,6.6-0.3v-6.8H37.2C37.2,86.4,38.9,91.4,45.4,93.5z"/>
		<path id="XMLID_512_" class="st13" d="M48.7,89.7L48.7,89.7c-7.7,1.2-15-4-16.2-11.7l-2-12.6c-1.2-7.7,4-15,11.7-16.2l0,0
			c7.7-1.2,15,4,16.2,11.7l2,12.6C61.7,81.2,56.4,88.4,48.7,89.7z"/>
		<path id="XMLID_517_" class="st13" d="M40.1,79.9l-8.8,1.4c-2.5,0.4-4.9-1.3-5.3-3.9l0,0c-0.4-2.5,1.3-4.9,3.9-5.3l8.8-1.4
			L40.1,79.9z"/>
		<path id="XMLID_513_" class="st1" d="M33.4,75.5L33.4,75.5c1.9-0.3,3.2-2.1,2.9-4l-1.5-9.6L27.9,63l1.5,9.6
			C29.7,74.5,31.5,75.8,33.4,75.5z"/>
		<path id="XMLID_516_" class="st1" d="M36.8,63.5l-11.9,1.8l0,0C23.7,57.4,29.1,50,37,48.7l11.9-1.8l0,0
			C50.1,54.9,44.7,62.3,36.8,63.5z"/>
		<path id="XMLID_630_" class="st13" d="M26.2,150.4l15.6-33.1c1.8-3.7,0.5-8.3-3.1-10.3c-3.9-2.2-8.8-0.6-10.7,3.4l-18,38.1
			c-0.9,1.9-0.6,4.2,0.7,5.9l26.2,32.5l9.3-7.5L26.2,150.4z"/>
		<path id="XMLID_522_" class="st13" d="M36.8,187c2.7,3.4,7,10.1,13.3,13.1s11.5-0.8,12.3-2.3s2-4.5-2.3-6s-6.2-3.2-5.8-4.2
			c0.4-1,2.6-0.7,5.1-0.7c2.8,0,4.1-3.7-1.1-4.6c-5.2-0.8-10.3-1-12.3-3L36.8,187z"/>
		
			<rect id="XMLID_526_" x="183.2" y="99.8" transform="matrix(0.1392 -0.9903 0.9903 0.1392 57.6882 279.6989)" class="st13" width="13.1" height="13.7"/>
		<path id="XMLID_554_" class="st3" d="M187.4,98.7l-65.8-9.2c-2.8-0.4-5.6,1-7.1,3.4l-46,78.4l0,0c14.6,8.6,33.4,2.6,40.4-12.8
			l21.5-47.1l54.8,3.2L187.4,98.7z"/>
		
			<rect id="XMLID_538_" x="187.6" y="105" transform="matrix(0.1392 -0.9903 0.9903 0.1392 60.7082 284.706)" class="st5" width="13.1" height="4.9"/>
		<g id="XMLID_527_">
			<path id="XMLID_532_" class="st1" d="M206.6,78.9l-4.7,17.3l-4,0.8c-1,0.2-1.7,1-1.8,2l-2.2,16.3l1.8,0.2l4.3,0.6l8,1.1l5.4-39.6
				l-4-0.5C208.1,76.9,206.9,77.7,206.6,78.9z"/>
			<path id="XMLID_530_" class="st6" d="M211,116.8l5.1-37.9c0.1-0.5-0.3-0.9-0.7-0.9l-2.1-0.3l-5.4,39.6l2.1,0.3
				C210.5,117.6,210.9,117.3,211,116.8z"/>
			<line id="XMLID_529_" class="st7" x1="199.2" y1="103.5" x2="198.2" y2="94.9"/>
			<line id="XMLID_531_" class="st7" x1="201.5" y1="103.2" x2="200.6" y2="94.6"/>
		</g>
		<path id="XMLID_523_" class="st4" d="M130.4,111.3c-5.9-1.2-6.3-7.3-6.8-9.8s-5.6,10.1,4.8,14.1L130.4,111.3z"/>
		<path id="XMLID_552_" class="st4" d="M151.2,142.4c-2.5-2.9-1.3-7.8,0-10.7c1.2-2.7-8.1,2.3-4,12.6L151.2,142.4z"/>
		<path id="XMLID_553_" class="st8" d="M26.2,150.4c0,0-2.5-2.7-5.5-2.6c-3,0.1,0.7-4.5,7.1-0.8L26.2,150.4z"/>
		<g id="XMLID_631_">
			<path class="st14" d="M68.9,126c0,0,0.1,0.1,0.1,0.2c0.1,0.2,0.2,0.4,0.3,0.7c0,0.3,0,0.8-0.1,1.2c-0.1,0.4-0.3,0.9-0.5,1.3
				c-0.2,0.5-0.6,0.9-0.9,1.4c-0.4,0.4-0.8,1-1.3,1.3c-0.5,0.4-1.1,0.8-1.6,1.2c-0.6,0.3-1.2,0.6-1.9,0.8l-1,0.3
				c-0.3,0.1-0.7,0.1-1,0.2c-0.7,0.2-1.3,0.1-2,0.2c-0.6,0-1.3-0.1-1.8-0.2c-0.6-0.1-1.1-0.3-1.6-0.4c-0.5-0.2-0.9-0.3-1.3-0.5
				c-0.4-0.1-0.7-0.4-0.9-0.5c-0.5-0.4-0.7-0.7-0.7-0.7s0.4-0.1,1-0.1c0.3,0,0.6,0.1,1,0.1s0.8,0.1,1.2,0.1c0.4,0,0.9,0,1.4,0
				c0.5-0.1,1-0.1,1.6-0.2c0.5-0.1,1.1-0.2,1.6-0.4c0.3-0.1,0.5-0.1,0.8-0.2l0.8-0.3c0.3-0.1,0.5-0.2,0.8-0.3s0.5-0.2,0.8-0.3
				c0.5-0.2,1-0.5,1.5-0.8c0.5-0.2,0.9-0.6,1.3-0.8c0.4-0.3,0.8-0.6,1-0.9c0.3-0.3,0.5-0.6,0.7-0.9c0.2-0.3,0.3-0.5,0.4-0.7
				C68.7,126.3,68.9,126,68.9,126z"/>
		</g>
		<path id="XMLID_33_" class="st8" d="M87.3,117c-0.9,2.7-0.7,4.3,0,5.4s-1.3,1.6-2.5-0.7s0.4-6.1,0.4-6.1L87.3,117z"/>
		<path id="XMLID_556_" class="st13" d="M103.8,87.9c-2.4-0.9-8,1.3-11.8,4.1c-3.8,2.7-4.7,4.5-3.1,9.7c1.6,5.3,4.4,6.5,8.7,4.4
			s7.9-4.4,7.9-4.4C110.7,98.9,108.9,90.1,103.8,87.9z"/>
		<g id="XMLID_844_">
			<path id="XMLID_846_" class="st2" d="M55.5,74.2c-0.2-1-4-9.1-4.7-8.8c-0.7,0.3,0.6,10.6,1.3,10.7C52.7,76.2,55.5,74.2,55.5,74.2
				z"/>
			
				<ellipse id="XMLID_820_" transform="matrix(0.9826 -0.1858 0.1858 0.9826 -12.5582 9.1993)" class="st15" cx="42.8" cy="71.6" rx="3.3" ry="2.4"/>
			
				<ellipse id="XMLID_866_" transform="matrix(0.998 -6.254499e-02 6.254499e-02 0.998 -4.2423 3.8703)" class="st15" cx="59.7" cy="69.7" rx="3.3" ry="2.4"/>
			<path id="XMLID_642_" d="M46.4,70.7L46.4,70.7c-0.8,0.1-1.5-0.5-1.6-1.3l-0.2-1.7c-0.1-0.8,0.5-1.5,1.3-1.6l0,0
				c0.8-0.1,1.5,0.5,1.6,1.3l0.2,1.7C47.8,69.9,47.3,70.6,46.4,70.7z"/>
			<path id="XMLID_821_" d="M56.4,69.2L56.4,69.2c-0.8,0.1-1.5-0.5-1.6-1.2l-0.2-1.6c-0.1-0.8,0.5-1.5,1.2-1.6l0,0
				c0.8-0.1,1.5,0.5,1.6,1.2l0.2,1.6C57.7,68.4,57.2,69.1,56.4,69.2z"/>
			<g id="XMLID_824_">
				<path d="M46.2,62.9c0,0-0.1,0.1-0.2,0.2c-0.2,0.1-0.3,0.1-0.5,0.2s-0.4,0.2-0.6,0.3c-0.1,0.1-0.2,0.1-0.3,0.2
					c-0.2,0.2-0.3,0.3-0.4,0.3c-0.1,0.1-0.2,0.1-0.3,0.2c-0.1,0.1-0.2,0.2-0.3,0.2c-0.2,0.2-0.4,0.3-0.5,0.5s-0.2,0.3-0.3,0.4
					c-0.1,0.1-0.2,0.2-0.2,0.2s-0.1-0.1-0.2-0.3c-0.1-0.2,0-0.4,0-0.7c0-0.1,0.1-0.3,0.1-0.4c0.1-0.1,0.1-0.3,0.2-0.5
					s0.2-0.3,0.3-0.4c0.1-0.1,0.3-0.3,0.4-0.4c0.3-0.2,0.7-0.4,1-0.5s0.7-0.1,0.9,0c0.3,0,0.5,0,0.6,0.1
					C46.1,62.8,46.2,62.9,46.2,62.9z"/>
			</g>
			<g id="XMLID_825_">
				<path d="M55,61.9c0,0,0-0.1,0.1-0.2s0.2-0.1,0.4-0.2c0.2-0.1,0.4-0.1,0.7-0.1c0.3,0,0.6,0.1,0.8,0.2c0.3,0.1,0.5,0.3,0.6,0.6
					c0.1,0.1,0.1,0.2,0.2,0.4c0,0.1,0.1,0.2,0.1,0.3c0,0.2,0.1,0.4,0,0.5c0,0.1-0.1,0.2-0.1,0.2s-0.1,0-0.2-0.1s-0.2-0.2-0.3-0.3
					c-0.1-0.1-0.3-0.2-0.4-0.3c-0.1,0-0.2-0.1-0.2-0.1c-0.1,0-0.1-0.1-0.2-0.1c-0.1-0.1-0.3-0.2-0.5-0.3c-0.2-0.1-0.3-0.2-0.5-0.2
					c-0.1-0.1-0.3-0.1-0.4-0.2C55.1,62,55,61.9,55,61.9z"/>
			</g>
			<path id="XMLID_822_" class="st8" d="M55,74.2c-0.6,0.1-3.9,1.5-3,1.9s2.5-0.1,3-0.3C55.5,75.5,56.4,73.9,55,74.2z"/>
			<g id="XMLID_823_">
				<path d="M45,78.5c0,0,0.1,0.1,0.3,0.4c0.1,0.1,0.2,0.2,0.3,0.4c0.1,0.1,0.3,0.3,0.4,0.4c0.2,0.1,0.4,0.3,0.6,0.4
					s0.5,0.2,0.7,0.4c0.5,0.2,1.1,0.4,1.7,0.5c0.3,0.1,0.6,0.1,0.9,0.1s0.6,0.1,0.9,0c0.3,0,0.6,0,0.8,0c0.3,0,0.5-0.1,0.7-0.1
					s0.4-0.1,0.6-0.2c0.2,0,0.3-0.1,0.5-0.1c0.3-0.1,0.5-0.1,0.5-0.1s-0.1,0.1-0.3,0.3c-0.1,0.1-0.2,0.2-0.4,0.3
					c-0.2,0.1-0.4,0.2-0.6,0.3c-0.2,0.1-0.5,0.2-0.8,0.3c-0.3,0.1-0.6,0.2-0.9,0.2c-0.6,0.1-1.3,0.1-2,0c-0.3-0.1-0.7-0.2-1-0.3
					c-0.3-0.1-0.6-0.3-0.9-0.4c-0.6-0.3-1-0.7-1.3-1.1s-0.5-0.8-0.6-1.1C44.9,78.6,45,78.5,45,78.5z"/>
			</g>
		</g>
	</g>
	<g id="XMLID_900_">
		<path id="XMLID_588_" class="st1" d="M116.7,23.2h-32c-2,0-3.6,1.6-3.6,3.6v20.4c0,2,1.6,3.6,3.6,3.6h4.2l3.4,6.7
			c0.2,0.5,0.9,0.5,1.1,0l3.4-6.7h19.8c2,0,3.6-1.6,3.6-3.6V26.8C120.3,24.8,118.7,23.2,116.7,23.2z"/>
		<g>
			<g id="XMLID_566_">
				<path id="XMLID_563_" class="st16" d="M85,33.6v10.2h5.6V33.6H85z M87.8,42.1c-0.6,0-1.1-0.5-1.1-1.1s0.5-1.1,1.1-1.1
					s1.1,0.5,1.1,1.1S88.4,42.1,87.8,42.1z"/>
				<path id="XMLID_586_" class="st16" d="M103.6,33.6h-4.7v-3c0-0.9-0.6-1.7-1.4-1.8c-1.1-0.2-2,0.7-2,1.7v3.1h-2.4h-1.2v7.7H94
					c0,0.5,0.4,0.9,0.9,0.9h8.1c0.7,0,1.3-0.5,1.3-1.2l0.7-6C105,34.3,104.4,33.6,103.6,33.6z"/>
			</g>
			<g id="XMLID_567_">
				<path class="st16" d="M115.1,29.9v13.9h-3.4V33.6c-0.7,0.6-1.6,1.1-2.5,1.4l-1.2-2.2c1.5-0.6,3.1-1.4,4.5-2.9H115.1z"/>
			</g>
		</g>
	</g>
</g>
</svg>
