<?xml version="1.0" encoding="utf-8"?>
<!-- Generator: Adobe Illustrator 23.0.4, SVG Export Plug-In . SVG Version: 6.00 Build 0)  -->
<svg version="1.1" id="Layer_1" xmlns="http://www.w3.org/2000/svg" xmlns:xlink="http://www.w3.org/1999/xlink" x="0px" y="0px"
	 viewBox="0 0 282 212.1" style="enable-background:new 0 0 282 212.1;" xml:space="preserve">
<style type="text/css">
	.st0{fill:#991B0F;}
	.st1{fill:#DA2516;}
	.st2{fill:#FDDEBC;}
	.st3{fill:#591009;}
	.st4{fill:#420906;}
	.st5{fill:#252525;}
	.st6{fill:#F3F3F3;}
	.st7{fill:none;stroke:#591009;stroke-miterlimit:10;}
	.st8{fill:#EE9782;}
	.st9{fill:#F3FAFE;}
	.st10{fill:#72AADC;}
	.st11{fill:#4066AE;}
	.st12{fill:#BDE4F6;}
	.st13{fill:#FFEDD4;}
	.st14{fill:#BF2113;}
	.st15{opacity:0.253;fill:#E76367;enable-background:new    ;}
	.st16{fill:#FFFFFF;}
</style>
<g id="XMLID_835_">
	<g id="XMLID_570_">
		<path id="XMLID_569_" class="st0" d="M91.4,66.2c3.1-6.2,7.5-15.9,13.1-13.1c5.6,2.8,9.5,12.6,6.2,23.2c-2.1,6.6-11,12.4-16.6,9.6
			C88.4,83.1,88.3,72.4,91.4,66.2z"/>
		<path id="XMLID_520_" class="st1" d="M84,97.3c-5.8,2.5-13.1,2.1-18.8-0.3c-8.7-3.6-13.4-11.8-12.9-21.2c0.2-4.5,1.5-9,2.4-13.4
			c1.4-6.7,2-13.8-0.4-20.1c-1.3-3.5-3.5-6.5-5.1-9.8c-1.7-3.3-2.9-7-2.2-10.6c1-5,5.6-8.6,10.4-10c18.2-5,39,9.5,45,26.5
			c1.1,3.2,1.8,6.6,2,10c0.2,3.5-0.4,11.6-4.4,17.4c0,0,3.2,0.3,3.9,8.1c0.4,4.5,0.3,7.9,0.3,7.9C92,93.1,84,97.3,84,97.3z"/>
		
			<rect id="XMLID_551_" x="237.1" y="182.9" transform="matrix(0.7799 -0.6259 0.6259 0.7799 -65.1368 194.2559)" class="st2" width="13.1" height="13.7"/>
		<path id="XMLID_525_" class="st3" d="M247.4,182.3l-41.3-51.5c-1.9-2.4-5.2-3.3-8.1-2.2l-84.8,31.5l0,0
			c5.9,15.9,24.2,23.2,39.4,15.7l45.4-22.4l37,39L247.4,182.3z"/>
		<path id="XMLID_638_" class="st4" d="M160.7,171.8c3.3-8.7,8.8-32.5,8.8-32.5l-56.3,20.8l0,0c5.9,15.9,24.2,23.2,39.4,15.7
			L160.7,171.8z"/>
		
			<rect id="XMLID_547_" x="239.8" y="190.8" transform="matrix(0.7799 -0.6259 0.6259 0.7799 -66.7506 196.7267)" class="st5" width="13.1" height="4.9"/>
		<g id="XMLID_541_">
			<path id="XMLID_546_" class="st1" d="M274.9,181.1l-15.3,9.4l-3.4-2.1c-0.8-0.5-1.9-0.4-2.7,0.2L240.7,199l1.2,1.4l2.7,3.3
				l5.1,6.2l31-25.2l-2.5-3.1C277.4,180.7,276,180.4,274.9,181.1z"/>
			<path id="XMLID_545_" class="st6" d="M252.2,211.7l29.7-24.1c0.4-0.3,0.4-0.8,0.1-1.2l-1.3-1.7l-31,25.2l1.3,1.7
				C251.3,211.9,251.8,212,252.2,211.7z"/>
			<line id="XMLID_543_" class="st7" x1="252.7" y1="193.9" x2="257.9" y2="187"/>
			<line id="XMLID_542_" class="st7" x1="254.6" y1="195.3" x2="259.8" y2="188.4"/>
		</g>
		<path id="XMLID_540_" class="st2" d="M149.6,94.3v7.1h-4.8v-7.1c0-1.3,1.1-2.4,2.4-2.4l0,0C148.5,91.9,149.6,93,149.6,94.3z"/>
		<path id="XMLID_521_" class="st2" d="M150.6,98.8L134,127.9l-24.7-15.6c-3.5-2.2-8.2-1.5-10.6,1.8c-2.6,3.6-1.6,8.7,2.1,11.1
			l34.5,21.8c2.2,1.4,5,0.5,6-1.8l14.5-33.1C158.1,106.9,155.7,101,150.6,98.8z"/>
		<path id="XMLID_634_" class="st8" d="M138.9,119.4c0.7,0.2,1.4,0.3,2.2,0.5c6.8,1.3,13.1-4.6,13.6-9.7l-8.9-2.9L138.9,119.4z"/>
		<path id="XMLID_528_" class="st1" d="M120.5,135.9c5.7-5.3,4.5-13.2,1.9-16.7c-3.8-5.2-13.1-9.5-16.9-11.4s-7-3.8-18.9,1.5
			s-10.8,12.2-10.8,12.2c1.1,35.2,31.9,56.1,39.6,60.6l18.7-31.9C127.9,146.7,123,142.3,120.5,135.9z"/>
		<g id="XMLID_519_">
			<path id="XMLID_557_" class="st9" d="M144,120.3l-12.9,1.8c-1.7,0.2-3.2-1.1-3.2-2.8V89.8c0-1.4,1-2.6,2.4-2.8l12.9-1.8
				c1.7-0.2,3.2,1.1,3.2,2.8v29.6C146.4,118.9,145.4,120.1,144,120.3z"/>
			<g id="XMLID_560_">
				<path id="XMLID_558_" class="st10" d="M139.6,96.3l-2.4,0.3c-0.3,0-0.6-0.2-0.6-0.5v-6.5c0-0.3,0.3-0.7,0.6-0.7l2.4-0.3
					c0.3,0,0.6,0.2,0.6,0.5v6.5C140.2,96,139.9,96.3,139.6,96.3z"/>
				<path id="XMLID_559_" class="st11" d="M137.5,91c0-0.5,0.4-1,0.9-1c0.5-0.1,0.9,0.3,0.9,0.8s-0.4,1-0.9,1
					C137.9,91.9,137.5,91.5,137.5,91z"/>
				<path id="XMLID_561_" class="st11" d="M137.8,93.6c0-0.3,0.3-0.6,0.6-0.6s0.6,0.2,0.6,0.5s-0.3,0.6-0.6,0.6
					C138.1,94.2,137.8,93.9,137.8,93.6z"/>
			</g>
			<path id="XMLID_565_" class="st12" d="M129.6,117.9c0-1.3,0-16.1,0-22.8c0-6.6,0-8,2.4-8.5l0,0l-1.6,0.2
				c-1.4,0.2-2.4,1.4-2.4,2.8v29.6c0,1.7,1.5,3.1,3.2,2.8l1.4-0.2C129.3,122.4,129.6,119.2,129.6,117.9z"/>
		</g>
		<path id="XMLID_518_" class="st2" d="M98.8,110.6c0,7.1-14.8,2.2-14.8,0V97.3h14.8V110.6z"/>
		<path id="XMLID_633_" class="st8" d="M92.2,104.4c2.8,0.9,5,0.5,6.6-0.3v-6.8H84C84,97.3,85.7,102.3,92.2,104.4z"/>
		<path id="XMLID_512_" class="st13" d="M95.5,100.6L95.5,100.6c-7.7,1.2-15-4-16.2-11.7l-2-12.6c-1.2-7.7,4-15,11.7-16.2l0,0
			c7.7-1.2,15,4,16.2,11.7l2,12.6C108.5,92.1,103.2,99.3,95.5,100.6z"/>
		<path id="XMLID_517_" class="st13" d="M86.9,90.8l-8.8,1.4c-2.5,0.4-4.9-1.3-5.3-3.9l0,0c-0.4-2.5,1.3-4.9,3.9-5.3l8.8-1.4
			L86.9,90.8z"/>
		<path id="XMLID_513_" class="st1" d="M80.2,86.4L80.2,86.4c1.9-0.3,3.2-2.1,2.9-4l-1.5-9.6l-6.9,1.1l1.5,9.6
			C76.5,85.4,78.3,86.7,80.2,86.4z"/>
		<path id="XMLID_516_" class="st1" d="M83.6,74.4l-11.9,1.8l0,0c-1.2-7.9,4.2-15.3,12.1-16.6l11.9-1.8l0,0
			C96.9,65.8,91.5,73.2,83.6,74.4z"/>
		
			<image style="display:none;overflow:visible;opacity:0.5;enable-background:new    ;" width="669" height="732" id="XMLID_758_" xlink:href="A5E289B99DA4BA93.png"  transform="matrix(0.2355 0 0 0.2364 0.6572 -3.634230e-02)">
		</image>
		<path id="XMLID_630_" class="st13" d="M73,161.3l15.6-33.1c1.8-3.7,0.5-8.3-3.1-10.3c-3.9-2.2-8.8-0.6-10.7,3.4l-18,38.1
			c-0.9,1.9-0.6,4.2,0.7,5.9l26.2,32.5l9.3-7.5L73,161.3z"/>
		<path id="XMLID_522_" class="st13" d="M83.6,197.9c2.7,3.4,7,10.1,13.3,13.1s11.5-0.8,12.3-2.3s2-4.5-2.3-6s-6.2-3.2-5.8-4.2
			c0.4-1,2.6-0.7,5.1-0.7c2.8,0,4.1-3.7-1.1-4.6c-5.2-0.8-10.3-1-12.3-3L83.6,197.9z"/>
		
			<rect id="XMLID_526_" x="229.9" y="110.7" transform="matrix(0.1392 -0.9903 0.9903 0.1392 87.1993 335.3601)" class="st13" width="13.1" height="13.7"/>
		<path id="XMLID_554_" class="st3" d="M234.2,109.6l-65.8-9.2c-2.8-0.4-5.6,1-7.1,3.4l-46,78.4l0,0c14.6,8.6,33.4,2.6,40.4-12.8
			l21.5-47.1l54.8,3.2L234.2,109.6z"/>
		
			<rect id="XMLID_538_" x="234.3" y="115.9" transform="matrix(0.1392 -0.9903 0.9903 0.1392 90.1846 340.3725)" class="st5" width="13.1" height="4.9"/>
		<g id="XMLID_527_">
			<path id="XMLID_532_" class="st1" d="M253.4,89.8l-4.7,17.3l-4,0.8c-1,0.2-1.7,1-1.8,2l-2.2,16.3l1.8,0.2l4.3,0.6l8,1.1l5.4-39.6
				l-4-0.5C254.9,87.8,253.7,88.6,253.4,89.8z"/>
			<path id="XMLID_530_" class="st6" d="M257.8,127.7l5.1-37.9c0.1-0.5-0.3-0.9-0.7-0.9l-2.1-0.3l-5.4,39.6l2.1,0.3
				C257.3,128.5,257.7,128.2,257.8,127.7z"/>
			<line id="XMLID_529_" class="st7" x1="246" y1="114.4" x2="245" y2="105.8"/>
			<line id="XMLID_531_" class="st7" x1="248.3" y1="114.1" x2="247.4" y2="105.5"/>
		</g>
		<path id="XMLID_523_" class="st4" d="M177.2,122.2c-5.9-1.2-6.3-7.3-6.8-9.8s-5.6,10.1,4.8,14.1L177.2,122.2z"/>
		<path id="XMLID_552_" class="st4" d="M198,153.3c-2.5-2.9-1.3-7.8,0-10.7c1.2-2.7-8.1,2.3-4,12.6L198,153.3z"/>
		<path id="XMLID_553_" class="st8" d="M73,161.3c0,0-2.5-2.7-5.5-2.6c-3,0.1,0.7-4.5,7.1-0.8L73,161.3z"/>
		<g id="XMLID_631_">
			<path class="st14" d="M115.7,136.9c0,0,0.1,0.1,0.1,0.2c0.1,0.2,0.2,0.4,0.3,0.7c0,0.3,0,0.8-0.1,1.2s-0.3,0.9-0.5,1.3
				c-0.2,0.5-0.6,0.9-0.9,1.4c-0.4,0.4-0.8,1-1.3,1.3c-0.5,0.4-1.1,0.8-1.6,1.2c-0.6,0.3-1.2,0.6-1.9,0.8l-1,0.3
				c-0.3,0.1-0.7,0.1-1,0.2c-0.7,0.2-1.3,0.1-2,0.2c-0.6,0-1.3-0.1-1.8-0.2c-0.6-0.1-1.1-0.3-1.6-0.4c-0.5-0.2-0.9-0.3-1.3-0.5
				c-0.4-0.1-0.7-0.4-0.9-0.5c-0.5-0.4-0.7-0.7-0.7-0.7s0.4-0.1,1-0.1c0.3,0,0.6,0.1,1,0.1s0.8,0.1,1.2,0.1c0.4,0,0.9,0,1.4,0
				c0.5-0.1,1-0.1,1.6-0.2c0.5-0.1,1.1-0.2,1.6-0.4c0.3-0.1,0.5-0.1,0.8-0.2l0.8-0.3c0.3-0.1,0.5-0.2,0.8-0.3s0.5-0.2,0.8-0.3
				c0.5-0.2,1-0.5,1.5-0.8c0.5-0.2,0.9-0.6,1.3-0.8c0.4-0.3,0.8-0.6,1-0.9c0.3-0.3,0.5-0.6,0.7-0.9c0.2-0.3,0.3-0.5,0.4-0.7
				C115.5,137.2,115.7,136.9,115.7,136.9z"/>
		</g>
		<path id="XMLID_33_" class="st8" d="M134.1,127.9c-0.9,2.7-0.7,4.3,0,5.4s-1.3,1.6-2.5-0.7s0.4-6.1,0.4-6.1L134.1,127.9z"/>
		<path id="XMLID_556_" class="st13" d="M150.6,98.8c-2.4-0.9-8,1.3-11.8,4.1c-3.8,2.7-4.7,4.5-3.1,9.7c1.6,5.3,4.4,6.5,8.7,4.4
			s7.9-4.4,7.9-4.4C157.5,109.8,155.7,101,150.6,98.8z"/>
		<g id="XMLID_844_">
			<path id="XMLID_846_" class="st2" d="M102.3,85.1c-0.2-1-4-9.1-4.7-8.8c-0.7,0.3,0.6,10.6,1.3,10.7
				C99.5,87.1,102.3,85.1,102.3,85.1z"/>
			
				<ellipse id="XMLID_820_" transform="matrix(0.9826 -0.1858 0.1858 0.9826 -13.7701 18.0841)" class="st15" cx="89.6" cy="82.5" rx="3.3" ry="2.4"/>
			
				<ellipse id="XMLID_866_" transform="matrix(0.998 -6.254235e-02 6.254235e-02 0.998 -4.8324 6.8182)" class="st15" cx="106.5" cy="80.6" rx="3.3" ry="2.4"/>
			<path id="XMLID_642_" d="M93.2,81.6L93.2,81.6c-0.8,0.1-1.5-0.5-1.6-1.3l-0.2-1.7c-0.1-0.8,0.5-1.5,1.3-1.6l0,0
				c0.8-0.1,1.5,0.5,1.6,1.3l0.2,1.7C94.6,80.8,94.1,81.5,93.2,81.6z"/>
			<path id="XMLID_821_" d="M103.2,80.1L103.2,80.1c-0.8,0.1-1.5-0.5-1.6-1.2l-0.2-1.6c-0.1-0.8,0.5-1.5,1.2-1.6l0,0
				c0.8-0.1,1.5,0.5,1.6,1.2l0.2,1.6C104.5,79.3,104,80,103.2,80.1z"/>
			<g id="XMLID_824_">
				<path d="M93,73.8c0,0-0.1,0.1-0.2,0.2c-0.2,0.1-0.3,0.1-0.5,0.2s-0.4,0.2-0.6,0.3c-0.1,0.1-0.2,0.1-0.3,0.2
					C91.2,74.9,91.1,75,91,75c-0.1,0.1-0.2,0.1-0.3,0.2c-0.1,0.1-0.2,0.2-0.3,0.2c-0.2,0.2-0.4,0.3-0.5,0.5s-0.2,0.3-0.3,0.4
					c-0.1,0.1-0.2,0.2-0.2,0.2s-0.1-0.1-0.2-0.3c-0.1-0.2,0-0.4,0-0.7c0-0.1,0.1-0.3,0.1-0.4c0.1-0.1,0.1-0.3,0.2-0.5
					s0.2-0.3,0.3-0.4c0.1-0.1,0.3-0.3,0.4-0.4c0.3-0.2,0.7-0.4,1-0.5s0.7-0.1,0.9,0c0.3,0,0.5,0,0.6,0.1C92.9,73.7,93,73.8,93,73.8z
					"/>
			</g>
			<g id="XMLID_825_">
				<path d="M101.8,72.8c0,0,0-0.1,0.1-0.2s0.2-0.1,0.4-0.2c0.2-0.1,0.4-0.1,0.7-0.1c0.3,0,0.6,0.1,0.8,0.2c0.3,0.1,0.5,0.3,0.6,0.6
					c0.1,0.1,0.1,0.2,0.2,0.4c0,0.1,0.1,0.2,0.1,0.3c0,0.2,0.1,0.4,0,0.5c0,0.1-0.1,0.2-0.1,0.2s-0.1,0-0.2-0.1s-0.2-0.2-0.3-0.3
					c-0.1-0.1-0.3-0.2-0.4-0.3c-0.1,0-0.2-0.1-0.2-0.1c-0.1,0-0.1-0.1-0.2-0.1c-0.1-0.1-0.3-0.2-0.5-0.3c-0.2-0.1-0.3-0.2-0.5-0.2
					c-0.1-0.1-0.3-0.1-0.4-0.2C101.9,72.9,101.8,72.8,101.8,72.8z"/>
			</g>
			<path id="XMLID_822_" class="st8" d="M101.8,85.1c-0.6,0.1-3.9,1.5-3,1.9s2.5-0.1,3-0.3C102.3,86.4,103.2,84.8,101.8,85.1z"/>
			<g id="XMLID_823_">
				<path d="M91.8,89.4c0,0,0.1,0.1,0.3,0.4c0.1,0.1,0.2,0.2,0.3,0.4c0.1,0.1,0.3,0.3,0.4,0.4c0.2,0.1,0.4,0.3,0.6,0.4
					s0.5,0.2,0.7,0.4c0.5,0.2,1.1,0.4,1.7,0.5c0.3,0.1,0.6,0.1,0.9,0.1s0.6,0.1,0.9,0c0.3,0,0.6,0,0.8,0c0.3,0,0.5-0.1,0.7-0.1
					s0.4-0.1,0.6-0.2c0.2,0,0.3-0.1,0.5-0.1c0.3-0.1,0.5-0.1,0.5-0.1s-0.1,0.1-0.3,0.3c-0.1,0.1-0.2,0.2-0.4,0.3
					c-0.2,0.1-0.4,0.2-0.6,0.3c-0.2,0.1-0.5,0.2-0.8,0.3c-0.3,0.1-0.6,0.2-0.9,0.2c-0.6,0.1-1.3,0.1-2,0c-0.3-0.1-0.7-0.2-1-0.3
					c-0.3-0.1-0.6-0.3-0.9-0.4c-0.6-0.3-1-0.7-1.3-1.1S92,90.3,91.9,90C91.7,89.5,91.8,89.4,91.8,89.4z"/>
			</g>
		</g>
	</g>
	<g id="XMLID_900_">
		<path id="XMLID_588_" class="st1" d="M163.5,34.1h-32c-2,0-3.6,1.6-3.6,3.6v20.4c0,2,1.6,3.6,3.6,3.6h4.2l3.4,6.7
			c0.2,0.5,0.9,0.5,1.1,0l3.4-6.7h19.8c2,0,3.6-1.6,3.6-3.6V37.7C167.1,35.7,165.5,34.1,163.5,34.1z"/>
		<g>
			<g id="XMLID_566_">
				<path id="XMLID_563_" class="st16" d="M131.8,44.5v10.2h5.6V44.5H131.8z M134.6,53c-0.6,0-1.1-0.5-1.1-1.1s0.5-1.1,1.1-1.1
					s1.1,0.5,1.1,1.1S135.2,53,134.6,53z"/>
				<path id="XMLID_586_" class="st16" d="M150.4,44.5h-4.7v-3c0-0.9-0.6-1.7-1.4-1.8c-1.1-0.2-2,0.7-2,1.7v3.1h-2.4h-1.2v7.7h2.1
					c0,0.5,0.4,0.9,0.9,0.9h8.1c0.7,0,1.3-0.5,1.3-1.2l0.7-6C151.8,45.2,151.2,44.5,150.4,44.5z"/>
			</g>
			<g id="XMLID_567_">
				<path class="st16" d="M161.9,40.8v13.9h-3.4V44.5c-0.7,0.6-1.6,1.1-2.5,1.4l-1.2-2.2c1.5-0.6,3.1-1.4,4.5-2.9H161.9z"/>
			</g>
		</g>
	</g>
</g>
</svg>
